<svg xmlns="http://www.w3.org/2000/svg" xmlns:xlink="http://www.w3.org/1999/xlink" width="2000" zoomAndPan="magnify" viewBox="0 0 1500 1499.999933" height="2000" preserveAspectRatio="xMidYMid meet" version="1.0"><defs><clipPath id="28369e9360"><path d="M 26.425781 26.425781 L 1467 26.425781 L 1467 1467 L 26.425781 1467 Z M 26.425781 26.425781 " clip-rule="nonzero"/></clipPath><clipPath id="8dbf326590"><path d="M 1089.644531 880.238281 L 1277.773438 990.898438 C 1298.203125 1002.816406 1305.015625 1028.355469 1293.097656 1048.785156 C 1231.804688 1151.789062 1145.828125 1236.914062 1043.679688 1296.5 C 944.082031 1353.535156 828.308594 1385.882812 705.730469 1385.882812 C 697.214844 1385.882812 686.148438 1385.882812 673.382812 1385.03125 L 671.679688 1385.03125 C 658.910156 1411.421875 638.480469 1432.703125 613.792969 1447.171875 C 581.445312 1465.902344 542.289062 1471.859375 503.980469 1461.644531 C 464.824219 1451.429688 434.179688 1425.890625 415.449219 1394.394531 C 396.722656 1362.046875 390.765625 1322.890625 400.980469 1283.734375 C 411.195312 1245.425781 436.730469 1213.929688 468.226562 1196.054688 C 500.578125 1177.324219 540.585938 1170.515625 578.890625 1180.730469 C 617.199219 1191.796875 648.695312 1216.484375 667.421875 1248.832031 C 675.933594 1264.152344 681.894531 1282.03125 685.300781 1299.90625 C 691.257812 1299.90625 698.066406 1300.757812 705.730469 1300.757812 C 812.988281 1300.757812 914.285156 1271.816406 1001.117188 1222.441406 C 1078.578125 1177.324219 1145.828125 1116.035156 1196.90625 1041.976562 L 1047.082031 954.296875 C 1034.3125 972.171875 1019.84375 988.347656 1004.519531 1004.519531 C 927.90625 1080.28125 822.351562 1127.953125 705.730469 1127.953125 C 589.957031 1127.953125 484.402344 1080.28125 407.789062 1004.519531 C 391.617188 987.496094 375.441406 968.765625 361.820312 949.1875 L 171.992188 1055.597656 C 151.5625 1067.511719 125.171875 1059.851562 114.105469 1039.421875 L 113.253906 1039.421875 C 85.164062 987.496094 63.03125 933.015625 48.558594 876.832031 C 34.085938 821.5 26.425781 764.464844 26.425781 705.730469 C 26.425781 634.222656 37.492188 565.273438 57.921875 500.578125 C 76.648438 441.839844 103.039062 387.359375 135.386719 337.136719 C 118.363281 312.449219 110.699219 284.355469 110.699219 255.414062 C 110.699219 218.808594 124.320312 181.355469 153.261719 153.261719 C 181.355469 124.320312 218.808594 110.699219 255.414062 110.699219 C 292.871094 110.699219 330.324219 124.320312 358.417969 153.261719 C 386.507812 181.355469 400.980469 218.808594 400.980469 255.414062 C 400.980469 292.871094 386.507812 330.324219 358.417969 358.417969 C 330.324219 386.507812 292.871094 400.980469 255.414062 400.980469 C 237.539062 400.980469 219.660156 397.574219 202.636719 390.765625 C 176.246094 432.476562 154.964844 478.445312 139.644531 526.113281 C 121.765625 583.148438 111.550781 643.585938 111.550781 705.730469 C 111.550781 757.65625 118.363281 807.878906 131.128906 855.550781 C 140.496094 891.304688 153.261719 926.203125 168.585938 959.402344 L 320.109375 875.128906 C 297.125 823.203125 284.355469 766.167969 284.355469 705.730469 C 284.355469 589.957031 332.027344 484.402344 407.789062 407.789062 C 475.039062 341.390625 564.421875 297.125 663.167969 286.910156 L 663.167969 68.988281 C 663.167969 45.152344 682.746094 26.425781 705.730469 26.425781 C 840.226562 26.425781 966.214844 65.585938 1071.769531 133.683594 C 1173.070312 198.378906 1256.492188 288.613281 1310.972656 396.722656 C 1340.765625 394.167969 1369.710938 400.980469 1393.542969 415.449219 L 1394.394531 415.449219 C 1425.890625 434.179688 1451.429688 464.824219 1461.644531 503.980469 C 1471.859375 542.289062 1465.902344 581.445312 1447.175781 613.792969 C 1428.445312 646.140625 1397.800781 671.679688 1358.644531 681.894531 C 1320.335938 692.109375 1281.179688 685.300781 1248.832031 667.421875 L 1248.832031 666.570312 L 1248.832031 667.421875 C 1216.484375 648.695312 1191.796875 617.199219 1180.730469 578.890625 C 1170.515625 540.585938 1177.324219 501.425781 1196.054688 469.078125 L 1196.054688 468.230469 C 1204.566406 452.90625 1216.484375 438.433594 1230.953125 427.367188 C 1183.285156 337.136719 1111.777344 260.523438 1025.800781 205.191406 C 944.933594 153.261719 850.441406 120.914062 749.144531 113.253906 L 749.144531 286.910156 C 847.890625 297.125 937.269531 341.390625 1004.519531 407.789062 C 1080.28125 484.402344 1127.953125 589.957031 1127.953125 705.730469 C 1127.953125 768.722656 1114.332031 827.457031 1089.644531 880.238281 Z M 944.082031 468.226562 C 882.789062 407.789062 798.515625 370.332031 705.730469 370.332031 C 613.792969 370.332031 529.519531 407.789062 468.226562 468.226562 C 407.789062 529.519531 370.332031 613.792969 370.332031 705.730469 C 370.332031 798.515625 407.789062 882.789062 468.226562 944.082031 C 529.519531 1004.519531 613.792969 1041.976562 705.730469 1041.976562 C 798.515625 1041.976562 882.789062 1004.519531 944.082031 944.082031 C 1004.519531 882.789062 1041.976562 798.515625 1041.976562 705.730469 C 1041.976562 613.792969 1004.519531 529.519531 944.082031 468.226562 Z M 705.730469 533.773438 C 753.398438 533.773438 796.8125 553.355469 827.457031 584.851562 C 858.957031 615.496094 878.535156 658.910156 878.535156 705.730469 C 878.535156 753.398438 858.957031 796.8125 827.457031 827.457031 C 796.8125 858.957031 753.398438 878.535156 705.730469 878.535156 C 658.910156 878.535156 615.496094 858.957031 584.851562 827.457031 C 553.355469 796.8125 533.773438 753.398438 533.773438 705.730469 C 533.773438 658.910156 553.355469 615.496094 584.851562 584.851562 C 615.496094 553.355469 658.910156 533.773438 705.730469 533.773438 Z M 767.019531 645.289062 C 751.695312 629.117188 730.414062 619.753906 705.730469 619.753906 C 681.894531 619.753906 660.613281 629.117188 645.289062 645.289062 C 629.117188 660.613281 619.753906 681.894531 619.753906 705.730469 C 619.753906 730.414062 629.117188 751.695312 645.289062 767.019531 C 660.613281 783.195312 681.894531 792.558594 705.730469 792.558594 C 730.414062 792.558594 751.695312 783.195312 767.019531 767.019531 C 783.195312 751.695312 792.558594 730.414062 792.558594 705.730469 C 792.558594 681.894531 783.195312 660.613281 767.019531 645.289062 Z M 255.414062 195.828125 C 240.089844 195.828125 224.769531 201.785156 213.703125 213.703125 C 201.785156 224.769531 195.828125 240.089844 195.828125 255.414062 C 195.828125 270.738281 201.785156 286.058594 213.703125 297.976562 C 224.769531 309.894531 240.089844 315.851562 255.414062 315.851562 C 270.738281 315.851562 286.058594 309.894531 297.976562 297.976562 C 309.894531 286.058594 315.851562 270.738281 315.851562 255.414062 C 315.851562 240.089844 309.894531 224.769531 297.976562 213.703125 C 286.058594 201.785156 270.738281 195.828125 255.414062 195.828125 Z M 489.511719 1350.980469 C 497.171875 1364.601562 509.941406 1374.816406 526.113281 1379.074219 C 541.4375 1383.328125 557.609375 1380.777344 571.230469 1373.113281 C 584.851562 1365.453125 595.066406 1352.683594 599.320312 1337.363281 C 603.578125 1321.1875 601.023438 1305.015625 593.363281 1291.394531 C 585.703125 1278.625 572.933594 1267.558594 556.757812 1263.300781 C 540.585938 1259.046875 524.410156 1261.601562 511.640625 1269.261719 C 498.023438 1276.921875 487.808594 1289.691406 483.550781 1305.863281 C 479.292969 1322.039062 481.847656 1338.210938 489.511719 1350.980469 Z M 1373.113281 571.230469 C 1380.777344 557.609375 1383.328125 541.4375 1379.074219 526.113281 C 1374.816406 509.941406 1364.601562 497.171875 1350.980469 489.511719 C 1338.214844 481.847656 1322.039062 479.292969 1305.863281 483.550781 C 1289.691406 487.808594 1276.921875 498.023438 1269.261719 511.640625 C 1261.601562 524.410156 1259.046875 540.585938 1263.300781 556.757812 C 1267.558594 572.933594 1278.625 585.703125 1291.394531 593.363281 C 1305.015625 601.023438 1321.1875 603.578125 1337.363281 599.320312 C 1352.683594 595.066406 1365.453125 584.851562 1373.113281 571.230469 Z M 1373.113281 571.230469 " clip-rule="nonzero"/></clipPath></defs><g clip-path="url(#28369e9360)"><g clip-path="url(#8dbf326590)"><path fill="#ffffff" d="M 26.425781 26.425781 L 26.425781 1471.859375 L 1471.859375 1471.859375 L 1471.859375 26.425781 Z M 26.425781 26.425781 " fill-opacity="1" fill-rule="nonzero"/></g></g></svg>