<svg xmlns="http://www.w3.org/2000/svg" xmlns:xlink="http://www.w3.org/1999/xlink" width="2000" zoomAndPan="magnify" viewBox="0 0 1500 1499.999933" height="2000" preserveAspectRatio="xMidYMid meet" version="1.0"><defs><clipPath id="f279f21694"><path d="M 330.703125 330.703125 L 1166 330.703125 L 1166 1166 L 330.703125 1166 Z M 330.703125 330.703125 " clip-rule="nonzero"/></clipPath><clipPath id="f6d4bdc492"><path d="M 946.816406 825.46875 L 1055.832031 889.59375 C 1067.671875 896.5 1071.617188 911.300781 1064.710938 923.136719 C 1029.195312 982.824219 979.371094 1032.152344 920.179688 1066.683594 C 862.464844 1099.734375 795.378906 1118.476562 724.34375 1118.476562 C 719.414062 1118.476562 713 1118.476562 705.601562 1117.984375 L 704.613281 1117.984375 C 697.214844 1133.277344 685.375 1145.609375 671.070312 1153.996094 C 652.324219 1164.847656 629.632812 1168.300781 607.4375 1162.378906 C 584.746094 1156.460938 566.988281 1141.664062 556.136719 1123.410156 C 545.28125 1104.667969 541.828125 1081.976562 547.75 1059.285156 C 553.667969 1037.085938 568.46875 1018.835938 586.71875 1008.476562 C 605.464844 997.625 628.648438 993.675781 650.847656 999.597656 C 673.042969 1006.007812 691.296875 1020.316406 702.148438 1039.058594 C 707.078125 1047.9375 710.53125 1058.296875 712.507812 1068.65625 C 715.960938 1068.65625 719.90625 1069.148438 724.34375 1069.148438 C 786.5 1069.148438 845.199219 1052.378906 895.515625 1023.769531 C 940.402344 997.625 979.371094 962.105469 1008.96875 919.191406 L 922.152344 868.382812 C 914.753906 878.742188 906.367188 888.113281 897.488281 897.488281 C 853.09375 941.390625 791.925781 969.011719 724.34375 969.011719 C 657.257812 969.011719 596.089844 941.390625 551.695312 897.488281 C 542.324219 887.621094 532.949219 876.769531 525.058594 865.425781 L 415.054688 927.085938 C 403.21875 933.992188 387.925781 929.550781 381.511719 917.710938 L 381.019531 917.710938 C 364.742188 887.621094 351.914062 856.050781 343.53125 823.496094 C 335.144531 791.429688 330.703125 758.382812 330.703125 724.34375 C 330.703125 682.910156 337.117188 642.953125 348.957031 605.464844 C 359.808594 571.425781 375.101562 539.855469 393.84375 510.753906 C 383.980469 496.449219 379.539062 480.167969 379.539062 463.398438 C 379.539062 442.1875 387.433594 420.480469 404.203125 404.203125 C 420.480469 387.433594 442.1875 379.539062 463.398438 379.539062 C 485.101562 379.539062 506.808594 387.433594 523.085938 404.203125 C 539.363281 420.480469 547.75 442.1875 547.75 463.398438 C 547.75 485.101562 539.363281 506.808594 523.085938 523.085938 C 506.808594 539.363281 485.101562 547.75 463.398438 547.75 C 453.039062 547.75 442.679688 545.777344 432.8125 541.828125 C 417.523438 566 405.191406 592.636719 396.3125 620.261719 C 385.953125 653.3125 380.03125 688.335938 380.03125 724.34375 C 380.03125 754.433594 383.980469 783.539062 391.378906 811.164062 C 396.804688 831.878906 404.203125 852.105469 413.082031 871.34375 L 500.886719 822.507812 C 487.570312 792.417969 480.167969 759.367188 480.167969 724.34375 C 480.167969 657.257812 507.792969 596.089844 551.695312 551.695312 C 590.664062 513.21875 642.460938 487.570312 699.679688 481.648438 L 699.679688 355.367188 C 699.679688 341.558594 711.027344 330.703125 724.34375 330.703125 C 802.285156 330.703125 875.289062 353.394531 936.457031 392.859375 C 995.15625 430.347656 1043.5 482.636719 1075.070312 545.28125 C 1092.335938 543.804688 1109.105469 547.75 1122.917969 556.136719 L 1123.410156 556.136719 C 1141.664062 566.988281 1156.460938 584.746094 1162.378906 607.4375 C 1168.300781 629.632812 1164.847656 652.324219 1153.996094 671.070312 C 1143.144531 689.816406 1125.382812 704.613281 1102.695312 710.53125 C 1080.496094 716.453125 1057.804688 712.507812 1039.058594 702.148438 L 1039.058594 701.652344 L 1039.058594 702.148438 C 1020.316406 691.292969 1006.011719 673.042969 999.597656 650.84375 C 993.679688 628.648438 997.625 605.957031 1008.476562 587.210938 L 1008.476562 586.71875 C 1013.410156 577.839844 1020.316406 569.453125 1028.699219 563.042969 C 1001.078125 510.753906 959.640625 466.359375 909.820312 434.292969 C 862.957031 404.203125 808.203125 385.460938 749.503906 381.019531 L 749.503906 481.648438 C 806.722656 487.570312 858.519531 513.21875 897.488281 551.695312 C 941.390625 596.089844 969.011719 657.257812 969.011719 724.34375 C 969.011719 760.847656 961.121094 794.882812 946.816406 825.46875 Z M 862.464844 586.71875 C 826.949219 551.695312 778.113281 529.992188 724.34375 529.992188 C 671.070312 529.992188 622.234375 551.695312 586.71875 586.71875 C 551.695312 622.234375 529.992188 671.070312 529.992188 724.34375 C 529.992188 778.113281 551.695312 826.949219 586.71875 862.464844 C 622.234375 897.488281 671.070312 919.191406 724.34375 919.191406 C 778.113281 919.191406 826.949219 897.488281 862.464844 862.464844 C 897.488281 826.949219 919.191406 778.113281 919.191406 724.34375 C 919.191406 671.070312 897.488281 622.234375 862.464844 586.71875 Z M 724.34375 624.703125 C 751.96875 624.703125 777.125 636.046875 794.882812 654.296875 C 813.136719 672.058594 824.480469 697.214844 824.480469 724.34375 C 824.480469 751.96875 813.136719 777.125 794.882812 794.882812 C 777.125 813.136719 751.96875 824.480469 724.34375 824.480469 C 697.214844 824.480469 672.058594 813.136719 654.296875 794.882812 C 636.046875 777.125 624.703125 751.96875 624.703125 724.34375 C 624.703125 697.214844 636.046875 672.058594 654.296875 654.296875 C 672.058594 636.046875 697.214844 624.703125 724.34375 624.703125 Z M 759.863281 689.320312 C 750.980469 679.949219 738.648438 674.523438 724.34375 674.523438 C 710.53125 674.523438 698.199219 679.949219 689.320312 689.320312 C 679.949219 698.199219 674.523438 710.53125 674.523438 724.34375 C 674.523438 738.648438 679.949219 750.980469 689.320312 759.859375 C 698.199219 769.234375 710.53125 774.660156 724.34375 774.660156 C 738.648438 774.660156 750.980469 769.234375 759.863281 759.859375 C 769.234375 750.980469 774.660156 738.648438 774.660156 724.34375 C 774.660156 710.53125 769.234375 698.199219 759.863281 689.320312 Z M 463.398438 428.867188 C 454.519531 428.867188 445.640625 432.320312 439.226562 439.226562 C 432.320312 445.640625 428.867188 454.519531 428.867188 463.398438 C 428.867188 472.277344 432.320312 481.15625 439.226562 488.0625 C 445.640625 494.96875 454.519531 498.421875 463.398438 498.421875 C 472.277344 498.421875 481.15625 494.96875 488.0625 488.0625 C 494.96875 481.15625 498.421875 472.277344 498.421875 463.398438 C 498.421875 454.519531 494.96875 445.640625 488.0625 439.226562 C 481.15625 432.320312 472.277344 428.867188 463.398438 428.867188 Z M 599.050781 1098.253906 C 603.492188 1106.144531 610.890625 1112.066406 620.261719 1114.53125 C 629.140625 1117 638.511719 1115.519531 646.40625 1111.078125 C 654.296875 1106.640625 660.21875 1099.238281 662.683594 1090.359375 C 665.152344 1080.988281 663.671875 1071.617188 659.230469 1063.722656 C 654.792969 1056.324219 647.394531 1049.910156 638.019531 1047.445312 C 628.648438 1044.980469 619.277344 1046.457031 611.875 1050.898438 C 603.984375 1055.339844 598.0625 1062.738281 595.597656 1072.109375 C 593.132812 1081.480469 594.613281 1090.855469 599.050781 1098.253906 Z M 1111.078125 646.40625 C 1115.519531 638.511719 1117 629.140625 1114.53125 620.261719 C 1112.066406 610.890625 1106.144531 603.492188 1098.253906 599.050781 C 1090.855469 594.609375 1081.480469 593.132812 1072.109375 595.597656 C 1062.738281 598.0625 1055.339844 603.984375 1050.898438 611.875 C 1046.460938 619.273438 1044.980469 628.648438 1047.445312 638.019531 C 1049.910156 647.390625 1056.324219 654.792969 1063.722656 659.230469 C 1071.617188 663.671875 1080.988281 665.152344 1090.359375 662.683594 C 1099.242188 660.21875 1106.640625 654.296875 1111.078125 646.40625 Z M 1111.078125 646.40625 " clip-rule="nonzero"/></clipPath></defs><g clip-path="url(#f279f21694)"><g clip-path="url(#f6d4bdc492)"><path fill="#ffffff" d="M 330.703125 330.703125 L 330.703125 1168.300781 L 1168.300781 1168.300781 L 1168.300781 330.703125 Z M 330.703125 330.703125 " fill-opacity="1" fill-rule="nonzero"/></g></g></svg>